<?xml version="1.0" encoding="utf-8"?>
<svg version="1.1" xmlns="http://www.w3.org/2000/svg" xmlns:xlink="http://www.w3.org/1999/xlink" x="0px" y="0px"
	 viewBox="0 0 85.04 364.25" style="enable-background:new 0 0 85.04 364.25;" xml:space="preserve">
<style type="text/css">
	.st0{display:none;}
	.st1{fill:none;stroke:#FFFFFF;stroke-width:0.25;stroke-miterlimit:10;}
	.st2{fill:#FFFFFF;}
	.st3{fill:url(#SVGID_1_);stroke:#939598;stroke-width:0.25;stroke-miterlimit:10;}
	.st4{fill:url(#SVGID_2_);stroke:#939598;stroke-width:0.25;stroke-miterlimit:10;}
	.st5{fill:none;stroke:#939598;stroke-width:0.25;stroke-miterlimit:10;}
	.st6{fill:none;stroke:#939598;stroke-width:0.2512;stroke-miterlimit:10;}
	.st7{fill:none;stroke:#939598;stroke-width:0.2499;stroke-miterlimit:10;}
	.st8{fill:none;stroke:#939598;stroke-width:0.2476;stroke-miterlimit:10;}
	.st9{fill:none;stroke:#FFFFFF;stroke-width:0.75;stroke-miterlimit:10;}
	.st10{fill:none;stroke:#FFFFFF;stroke-width:0.5557;stroke-miterlimit:10;}
	.st11{fill:none;stroke:#FFFFFF;stroke-width:0.5281;stroke-miterlimit:10;}
	.st12{fill:#FFFFFF;stroke:#FFFFFF;stroke-width:0.216;stroke-miterlimit:10;}
	.st13{fill:url(#SVGID_3_);stroke:#FFFFFF;stroke-width:0.25;stroke-miterlimit:10;}
	.st14{fill:#BCBEC0;stroke:#FFFFFF;stroke-width:0.25;stroke-miterlimit:10;}
	.st15{fill:#808285;}
	.st16{fill:#BCBEC0;}
</style>
<g id="background">
	<rect width="85.04" height="364.25"/>
</g>
<g id="Holes">
	<path class="st1" d="M25.79,8.5c0,2.51-2.03,4.54-4.53,4.54h-7.09c-2.5,0-4.53-2.03-4.53-4.54c0-2.5,2.03-4.53,4.53-4.53h7.09
		C23.76,3.97,25.79,6,25.79,8.5z"/>
	<path class="st1" d="M26.22,355.74c0,2.51-2.14,4.54-4.77,4.54h-7.47c-2.63,0-4.77-2.03-4.77-4.54c0-2.5,2.14-4.53,4.77-4.53h7.47
		C24.08,351.21,26.22,353.24,26.22,355.74z"/>
	<circle class="st1" cx="56.69" cy="49.18" r="8.65"/>
	<circle class="st1" cx="14.17" cy="49.18" r="9"/>
	<circle class="st1" cx="14.17" cy="117.52" r="8.65"/>
	<circle class="st1" cx="42.52" cy="117.52" r="8.65"/>
	<circle class="st1" cx="70.87" cy="117.52" r="8.65"/>
	<circle class="st1" cx="70.87" cy="189.81" r="8.65"/>
	<circle class="st1" cx="42.52" cy="189.81" r="8.65"/>
	<circle class="st1" cx="14.17" cy="189.81" r="8.65"/>
	<circle class="st1" cx="14.17" cy="230.6" r="8.65"/>
	<circle class="st1" cx="42.52" cy="230.6" r="8.65"/>
	<circle class="st1" cx="70.87" cy="230.6" r="8.65"/>
</g>
<g id="Logo_1_">
	<polygon id="MDL" class="st2" points="42.55,358.99 42.55,359.22 42.55,359.91 40.7,359.91 40.7,359 41.61,359 41.61,358.05 
		42.55,358.05 42.55,350.61 41.61,350.61 41.61,349.69 40.69,349.69 40.69,358.99 39.75,358.99 39.75,359.91 38.83,359.91 
		38.83,349.69 37.89,349.69 37.89,358.99 36.94,358.99 36.94,359.91 36.03,359.91 36.03,349.69 35.11,349.69 35.11,358.99 
		34.17,358.99 34.17,359.91 33.25,359.91 33.25,349.69 32.31,349.69 32.31,360.85 44.38,360.85 44.38,362.71 30.45,362.71 
		30.45,348.78 43.46,348.78 43.46,349.69 44.38,349.69 44.38,358.05 43.49,358.05 43.49,358.99 	"/>
	<g id="MDLware">
		<path class="st2" d="M47.22,358.51c0.09,0,0.16,0.01,0.23,0.02c0.06,0.01,0.12,0.04,0.17,0.07c0.05,0.03,0.09,0.08,0.13,0.14
			c0.04,0.06,0.08,0.13,0.12,0.23l1.25,2.88c0.02,0.04,0.04,0.05,0.08,0.05h0.07c0.04,0,0.07-0.02,0.08-0.05l1.25-2.88
			c0.04-0.1,0.08-0.17,0.12-0.23c0.04-0.06,0.08-0.1,0.13-0.14c0.05-0.03,0.1-0.06,0.17-0.07c0.06-0.01,0.14-0.02,0.22-0.02h0.64
			c0.21,0,0.35,0.05,0.42,0.14c0.07,0.09,0.11,0.25,0.11,0.48v3.44c0,0.09-0.05,0.13-0.14,0.13h-0.61c-0.09,0-0.13-0.04-0.13-0.13
			v-3.13c0-0.04-0.02-0.06-0.05-0.06h-0.05c-0.04,0-0.07,0.02-0.08,0.05l-1.21,2.69c-0.05,0.11-0.1,0.2-0.15,0.27
			c-0.05,0.07-0.1,0.14-0.16,0.18c-0.06,0.05-0.12,0.08-0.2,0.1c-0.07,0.02-0.16,0.03-0.26,0.03h-0.29c-0.1,0-0.19-0.01-0.26-0.03
			c-0.07-0.02-0.14-0.05-0.2-0.1c-0.06-0.05-0.11-0.11-0.16-0.18c-0.05-0.07-0.1-0.17-0.15-0.27l-1.21-2.69
			c-0.01-0.03-0.04-0.05-0.08-0.05h-0.05c-0.03,0-0.05,0.02-0.05,0.06v3.13c0,0.09-0.04,0.13-0.13,0.13h-0.61
			c-0.09,0-0.14-0.04-0.14-0.13v-3.44c0-0.23,0.04-0.39,0.11-0.48c0.07-0.09,0.21-0.14,0.43-0.14H47.22z"/>
		<path class="st2" d="M56.19,358.51c0.32,0,0.6,0.03,0.83,0.1c0.23,0.07,0.42,0.17,0.57,0.31c0.15,0.14,0.26,0.31,0.33,0.53
			c0.07,0.21,0.1,0.47,0.1,0.76v0.82c0,0.29-0.04,0.55-0.1,0.76c-0.07,0.21-0.18,0.39-0.33,0.53c-0.15,0.14-0.34,0.24-0.57,0.31
			c-0.23,0.07-0.51,0.1-0.83,0.1h-2.81c-0.12,0-0.18-0.06-0.18-0.18v-3.84c0-0.12,0.06-0.18,0.18-0.18H56.19z M54.12,361.8
			c0,0.05,0.03,0.08,0.08,0.08h1.97c0.18,0,0.32-0.02,0.44-0.05s0.22-0.08,0.29-0.16s0.13-0.17,0.16-0.29s0.05-0.27,0.05-0.44v-0.66
			c0-0.18-0.02-0.32-0.05-0.44s-0.08-0.22-0.16-0.29s-0.17-0.12-0.29-0.16c-0.12-0.03-0.27-0.05-0.44-0.05h-1.97
			c-0.05,0-0.08,0.03-0.08,0.08V361.8z"/>
		<path class="st2" d="M59.55,358.51c0.09,0,0.13,0.04,0.13,0.13v2.39c0,0.16,0.01,0.29,0.04,0.4c0.03,0.11,0.07,0.19,0.13,0.25
			c0.06,0.06,0.14,0.11,0.24,0.13c0.1,0.03,0.23,0.04,0.39,0.04h2.43c0.09,0,0.13,0.04,0.13,0.13v0.59c0,0.09-0.04,0.13-0.13,0.13
			h-2.47c-0.3,0-0.56-0.03-0.77-0.08s-0.38-0.15-0.52-0.27c-0.13-0.13-0.23-0.29-0.29-0.49c-0.06-0.2-0.09-0.45-0.09-0.74v-2.48
			c0-0.09,0.05-0.13,0.14-0.13H59.55z"/>
		<path class="st2" d="M63.82,359.42c0.07,0,0.12,0.03,0.14,0.1l0.77,2.47c0.01,0.03,0.03,0.04,0.06,0.04h0.02
			c0.04,0,0.06-0.01,0.06-0.04l0.81-2.27c0.04-0.11,0.09-0.18,0.14-0.23c0.05-0.04,0.14-0.06,0.24-0.06h0.71
			c0.11,0,0.19,0.02,0.24,0.06c0.05,0.04,0.1,0.12,0.14,0.23l0.8,2.27c0,0.03,0.02,0.04,0.06,0.04h0.02c0.03,0,0.05-0.01,0.06-0.04
			l0.78-2.47c0.01-0.06,0.06-0.1,0.14-0.1h0.68c0.05,0,0.08,0.01,0.1,0.04s0.01,0.06,0,0.1l-0.91,2.78c-0.05,0.15-0.1,0.25-0.17,0.3
			c-0.07,0.05-0.16,0.07-0.29,0.07h-0.76c-0.1,0-0.18-0.03-0.24-0.08c-0.06-0.05-0.11-0.15-0.16-0.29l-0.79-2.19
			c-0.01-0.02-0.03-0.04-0.05-0.04H66.4c-0.03,0-0.05,0.01-0.05,0.04l-0.79,2.19c-0.05,0.14-0.11,0.24-0.16,0.29
			s-0.14,0.08-0.24,0.08H64.4c-0.13,0-0.22-0.02-0.29-0.07c-0.07-0.05-0.12-0.15-0.17-0.3l-0.9-2.78c-0.01-0.04-0.01-0.08,0-0.1
			c0.01-0.03,0.05-0.04,0.1-0.04H63.82z"/>
		<path class="st2" d="M72.9,359.42c0.27,0,0.49,0.02,0.68,0.07c0.18,0.05,0.33,0.12,0.44,0.22c0.11,0.1,0.19,0.22,0.24,0.38
			c0.05,0.15,0.07,0.34,0.07,0.55v1.6c0,0.1-0.01,0.18-0.02,0.24c-0.01,0.06-0.04,0.11-0.07,0.15s-0.08,0.06-0.13,0.07
			c-0.06,0.01-0.13,0.02-0.22,0.02h-2.86c-0.18,0-0.32-0.02-0.44-0.05c-0.12-0.03-0.21-0.08-0.28-0.15
			c-0.07-0.07-0.12-0.16-0.15-0.26c-0.03-0.11-0.04-0.24-0.04-0.38v-0.29c0-0.12,0.01-0.24,0.04-0.33c0.03-0.1,0.08-0.18,0.15-0.25
			c0.07-0.07,0.17-0.12,0.28-0.15c0.12-0.03,0.27-0.05,0.44-0.05h2.44v-0.11c0-0.1-0.01-0.18-0.03-0.25
			c-0.02-0.07-0.05-0.12-0.1-0.17c-0.05-0.04-0.11-0.07-0.2-0.09c-0.08-0.02-0.19-0.03-0.32-0.03h-2.51c-0.07,0-0.11-0.04-0.11-0.11
			v-0.5c0-0.07,0.04-0.11,0.11-0.11H72.9z M73.3,362.05c0.06,0,0.11-0.01,0.13-0.04c0.03-0.03,0.04-0.08,0.04-0.16v-0.53h-2.2
			c-0.12,0-0.21,0.02-0.26,0.07c-0.05,0.05-0.08,0.12-0.08,0.22v0.13c0,0.11,0.02,0.19,0.08,0.24c0.05,0.05,0.14,0.08,0.26,0.08
			H73.3z"/>
		<path class="st2" d="M78.06,359.42c0.07,0,0.11,0.04,0.11,0.11v0.5c0,0.07-0.04,0.11-0.11,0.11h-1.6c-0.13,0-0.23,0.01-0.32,0.03
			c-0.08,0.02-0.15,0.06-0.2,0.11c-0.05,0.05-0.08,0.12-0.1,0.2c-0.02,0.09-0.03,0.19-0.03,0.31v1.78c0,0.09-0.04,0.13-0.13,0.13
			h-0.59c-0.09,0-0.14-0.04-0.14-0.13v-1.94c0-0.22,0.02-0.4,0.07-0.55c0.05-0.15,0.13-0.28,0.24-0.38c0.11-0.1,0.26-0.17,0.44-0.22
			c0.18-0.05,0.41-0.07,0.68-0.07H78.06z"/>
		<path class="st2" d="M81.7,359.42c0.2,0,0.37,0.02,0.51,0.05c0.13,0.03,0.24,0.09,0.32,0.17s0.13,0.18,0.17,0.31
			s0.05,0.28,0.05,0.46v0.57c0,0.13-0.03,0.22-0.08,0.27c-0.06,0.05-0.14,0.07-0.26,0.07h-3.03v0.14c0,0.19,0.04,0.32,0.14,0.41
			c0.09,0.08,0.26,0.13,0.52,0.13h2.5c0.07,0,0.11,0.04,0.11,0.11v0.5c0,0.07-0.04,0.11-0.11,0.11h-2.59c-0.27,0-0.5-0.02-0.68-0.07
			c-0.18-0.04-0.33-0.11-0.44-0.21c-0.11-0.1-0.19-0.22-0.24-0.38c-0.05-0.15-0.07-0.34-0.07-0.55v-0.86c0-0.22,0.02-0.4,0.07-0.55
			c0.05-0.15,0.13-0.28,0.24-0.38c0.11-0.1,0.26-0.17,0.44-0.22c0.18-0.05,0.41-0.07,0.68-0.07H81.7z M79.37,360.78h2.43
			c0.07,0,0.1-0.03,0.1-0.1v-0.25c0-0.12-0.03-0.21-0.08-0.26s-0.15-0.08-0.29-0.08h-1.51c-0.26,0-0.43,0.04-0.52,0.12
			c-0.09,0.08-0.14,0.22-0.14,0.41V360.78z"/>
	</g>
</g>
<g id="Graphics">
	<polygon class="st2" points="44.44,36.4 43.91,36.93 39.6,32.62 31.26,32.62 23.96,39.93 23.43,39.4 30.2,32.62 30.94,31.88 
		39.92,31.88 40.66,32.62 	"/>
	<circle class="st1" cx="14.17" cy="49.18" r="12.76"/>
	<circle class="st1" cx="14.17" cy="49.18" r="13.46"/>
	<circle class="st1" cx="14.17" cy="117.52" r="12.76"/>
	<circle class="st1" cx="14.17" cy="117.52" r="13.46"/>
	<circle class="st1" cx="42.52" cy="117.52" r="12.76"/>
	<circle class="st1" cx="42.52" cy="117.52" r="13.46"/>
	<circle class="st1" cx="70.87" cy="117.52" r="12.76"/>
	<circle class="st1" cx="70.87" cy="117.52" r="13.46"/>
	<circle class="st1" cx="70.87" cy="189.81" r="12.76"/>
	<circle class="st1" cx="70.87" cy="189.81" r="13.46"/>
	<circle class="st1" cx="42.52" cy="189.81" r="12.76"/>
	<circle class="st1" cx="42.52" cy="189.81" r="13.46"/>
	<circle class="st1" cx="14.17" cy="189.81" r="12.76"/>
	<circle class="st1" cx="14.17" cy="189.81" r="13.46"/>
	<circle class="st1" cx="14.17" cy="230.6" r="12.76"/>
	<circle class="st1" cx="14.17" cy="230.6" r="13.46"/>
	<circle class="st1" cx="42.52" cy="230.6" r="12.76"/>
	<circle class="st1" cx="42.52" cy="230.6" r="13.46"/>
	<circle class="st1" cx="70.87" cy="230.6" r="12.76"/>
	<circle class="st1" cx="70.87" cy="230.6" r="13.46"/>
	<linearGradient id="SVGID_1_" gradientUnits="userSpaceOnUse" x1="46.605" y1="62.67" x2="46.605" y2="32.25">
		<stop  offset="0" style="stop-color:#000000"/>
		<stop  offset="0.1362" style="stop-color:#100F10"/>
		<stop  offset="0.2696" style="stop-color:#2C2B2C"/>
		<stop  offset="0.4019" style="stop-color:#424143"/>
		<stop  offset="0.5336" style="stop-color:#525253"/>
		<stop  offset="0.6648" style="stop-color:#616162"/>
		<stop  offset="0.7957" style="stop-color:#6D6C6D"/>
		<stop  offset="0.924" style="stop-color:#767575"/>
		<stop  offset="1" style="stop-color:#787878"/>
	</linearGradient>
	<path class="st3" d="M54.94,32.25c-8.57,0.89-15.25,8.13-15.25,16.93c0,4.7,1.9,8.94,4.98,12.02l0,0l-0.47,0.46l-1,1
		c-2.89-3.34-4.71-7.74-4.91-12.61c-0.01-0.29-0.02-0.58-0.02-0.88s0.01-0.59,0.02-0.88C38.76,39.86,45.9,33.03,54.94,32.25z"/>
	<linearGradient id="SVGID_2_" gradientUnits="userSpaceOnUse" x1="66.785" y1="32.7608" x2="66.785" y2="63.1908">
		<stop  offset="0.0197" style="stop-color:#787878"/>
		<stop  offset="0.045" style="stop-color:#7E7D7D"/>
		<stop  offset="0.1816" style="stop-color:#9E9C9C"/>
		<stop  offset="0.3224" style="stop-color:#BCB9B9"/>
		<stop  offset="0.4665" style="stop-color:#D5D3D2"/>
		<stop  offset="0.6152" style="stop-color:#E9E8E7"/>
		<stop  offset="0.7713" style="stop-color:#F8F7F7"/>
		<stop  offset="0.9469" style="stop-color:#FFFFFF"/>
	</linearGradient>
	<path class="st4" d="M75.12,49.18c0,0.3-0.01,0.59-0.02,0.88c-0.2,4.87-2.02,9.28-4.91,12.62l-1.47-1.47
		c3.08-3.08,4.98-7.33,4.98-12.03c0-8.8-6.68-16.04-15.25-16.93c9.05,0.79,16.19,7.61,16.65,16.05
		C75.11,48.59,75.12,48.88,75.12,49.18z"/>
	<path class="st5" d="M54.94,32.25c0.54-0.04,1.13-0.07,1.75-0.07c0.63,0,1.21,0.03,1.76,0.07"/>
	<line class="st5" x1="56.69" y1="32.18" x2="56.69" y2="34.31"/>
	<line class="st5" x1="41.4" y1="52.22" x2="40" y2="52.5"/>
	<line class="st6" x1="48.03" y1="36.21" x2="47.24" y2="35.03"/>
	<line class="st7" x1="65.36" y1="36.21" x2="66.15" y2="35.03"/>
	<line class="st8" x1="71.99" y1="52.22" x2="73.38" y2="52.5"/>
	<line class="st5" x1="43.14" y1="58.24" x2="42.55" y2="58.63"/>
	<line class="st5" x1="41.61" y1="55.43" x2="40.96" y2="55.7"/>
	<line class="st5" x1="39.69" y1="49.18" x2="40.4" y2="49.18"/>
	<line class="st5" x1="40.69" y1="46" x2="40" y2="45.86"/>
	<line class="st5" x1="46.17" y1="59.71" x2="44.67" y2="61.21"/>
	<line class="st5" x1="42.94" y1="43.48" x2="40.98" y2="42.67"/>
	<line class="st5" x1="67.22" y1="59.71" x2="68.72" y2="61.21"/>
	<line class="st5" x1="43.14" y1="40.12" x2="42.55" y2="39.73"/>
	<line class="st5" x1="45.17" y1="37.66" x2="44.67" y2="37.15"/>
	<line class="st5" x1="50.45" y1="34.11" x2="50.18" y2="33.45"/>
	<line class="st5" x1="53.51" y1="33.18" x2="53.37" y2="32.48"/>
	<line class="st5" x1="59.88" y1="33.18" x2="60.01" y2="32.49"/>
	<line class="st5" x1="62.94" y1="34.1" x2="63.21" y2="33.45"/>
	<line class="st7" x1="68.22" y1="37.65" x2="68.72" y2="37.15"/>
	<line class="st5" x1="70.25" y1="40.12" x2="70.84" y2="39.73"/>
	<line class="st5" x1="72.68" y1="46" x2="73.38" y2="45.86"/>
	<line class="st5" x1="72.99" y1="49.18" x2="73.7" y2="49.18"/>
	<line class="st5" x1="71.77" y1="55.42" x2="72.41" y2="55.69"/>
	<line class="st5" x1="70.25" y1="58.24" x2="70.84" y2="58.63"/>
	<line class="st5" x1="70.44" y1="43.49" x2="72.41" y2="42.67"/>
	<polygon class="st2" points="71.24,87.08 71.24,104.06 70.49,104.06 70.49,87.83 42.89,87.83 42.89,104.06 42.14,104.06 
		42.14,87.83 14.55,87.83 14.55,104.06 13.8,104.06 13.8,87.08 56.32,87.08 56.32,59.23 57.07,59.23 57.07,87.08 	"/>
	<line class="st9" x1="14.17" y1="35.72" x2="14.17" y2="30.94"/>
	<line class="st9" x1="14.17" y1="67.43" x2="14.17" y2="62.65"/>
	<g>
		<rect x="5.67" y="147.95" class="st2" width="7.09" height="1.42"/>
		<rect x="8.5" y="143.7" class="st2" width="1.42" height="1.42"/>
		<rect x="2.84" y="147.95" class="st2" width="1.42" height="1.42"/>
		<polygon class="st2" points="29.72,152.2 29.72,153.62 1.42,153.62 1.42,152.2 14.15,152.2 14.15,150.79 15.57,150.79 
			15.57,152.2 18.4,152.2 18.4,149.37 19.82,149.37 19.82,152.2 21.22,152.2 21.22,147.95 22.63,147.95 22.63,152.2 25.47,152.2 
			25.47,147.95 26.88,147.95 26.88,152.2 		"/>
		<rect x="31.14" y="152.2" class="st2" width="12.75" height="1.42"/>
		<rect x="32.55" y="147.95" class="st2" width="4.26" height="1.42"/>
		<rect x="36.81" y="143.7" class="st2" width="8.5" height="1.42"/>
		<rect x="46.73" y="152.2" class="st2" width="36.85" height="1.42"/>
		<rect x="48.14" y="143.7" class="st2" width="4.26" height="1.42"/>
		<rect x="50.98" y="147.95" class="st2" width="1.42" height="1.42"/>
		<rect x="55.23" y="147.95" class="st2" width="2.84" height="1.42"/>
		<rect x="60.9" y="147.95" class="st2" width="1.42" height="1.42"/>
		<rect x="63.74" y="147.95" class="st2" width="1.42" height="1.42"/>
		<rect x="66.57" y="147.95" class="st2" width="1.42" height="1.42"/>
		<rect x="63.74" y="143.7" class="st2" width="1.42" height="1.42"/>
		<rect x="70.82" y="147.95" class="st2" width="1.42" height="1.42"/>
		<rect x="73.66" y="143.7" class="st2" width="2.83" height="1.42"/>
		<rect x="77.91" y="143.7" class="st2" width="5.67" height="1.42"/>
		<rect x="79.33" y="147.95" class="st2" width="2.83" height="1.42"/>
	</g>
	<g>
		<polygon class="st2" points="48.19,84.28 48.19,87.12 42.52,87.12 42.52,84.28 43.93,84.28 43.93,82.86 46.76,82.86 46.76,84.28 
					"/>
		<polygon class="st2" points="41.1,75.78 41.1,87.08 39.69,87.08 39.69,78.62 38.27,78.62 38.27,77.2 39.69,77.2 39.69,75.78 		"/>
		<polygon class="st2" points="29.76,78.57 29.76,87.08 25.5,87.08 25.5,87.09 19.83,87.09 19.83,85.67 21.24,85.67 21.24,84.25 
			22.66,84.25 22.66,82.83 24.08,82.83 24.08,81.41 25.5,81.41 25.5,79.99 26.92,79.99 26.92,78.57 		"/>
	</g>
	<g>
		<path class="st2" d="M8.81,165.26v1.38h1.38v-1.38H8.81z M7.44,166.64v1.37h1.37v-1.37H7.44z M6.06,168.01v1.38h1.38v-1.38H6.06z
			 M4.69,169.39v1.37h1.37v-1.37H4.69z M3.31,170.76v1.38h1.38v-1.38H3.31z M1.94,172.14v1.37h1.37v-1.37H1.94z"/>
		<polygon class="st2" points="15.69,170.76 15.69,172.14 14.31,172.14 14.31,173.51 11.56,173.51 11.56,165.26 10.19,165.26 
			10.19,163.89 14.31,163.89 14.31,170.76 		"/>
		<path class="st2" d="M19.81,165.26v1.38h1.38v-1.38H19.81z M18.44,166.64v1.37h1.37v-1.37H18.44z M17.06,168.01v1.38h1.38v-1.38
			H17.06z M15.69,169.39v1.37h1.37v-1.37H15.69z"/>
		<polygon class="st2" points="25.31,163.89 25.31,173.51 22.56,173.51 22.56,165.26 21.19,165.26 21.19,163.89 		"/>
	</g>
	<g>
		<path class="st2" d="M36.58,165.26v1.38h1.38v-1.38H36.58z M35.21,166.64v1.37h1.37v-1.37H35.21z M33.83,168.01v1.38h1.38v-1.38
			H33.83z M32.46,169.39v1.37h1.37v-1.37H32.46z M31.08,170.76v1.38h1.38v-1.38H31.08z M29.71,172.14v1.37h1.37v-1.37H29.71z"/>
		<rect x="37.96" y="163.89" class="st2" width="1.65" height="1.37"/>
		<path class="st2" d="M39.61,165.26v1.38h1.37v-1.38H39.61z M40.98,166.64v1.37h1.38v-1.37H40.98z M42.36,168.01v1.38h1.37v-1.38
			H42.36z M43.73,169.39v1.37h1.38v-1.37H43.73z M45.11,170.76v1.38h1.37v-1.38H45.11z"/>
		<rect x="46.48" y="172.14" class="st2" width="1.65" height="1.37"/>
		<path class="st2" d="M55.01,163.89v1.37h1.37v-1.37H55.01z M53.63,165.26v1.38h1.38v-1.38H53.63z M52.26,166.64v1.37h1.37v-1.37
			H52.26z M50.88,168.01v1.38h1.38v-1.38H50.88z M49.51,169.39v1.37h1.37v-1.37H49.51z M48.13,170.76v1.38h1.38v-1.38H48.13z"/>
	</g>
	<g>
		<polygon class="st2" points="65.37,165.26 65.37,166.64 63.99,166.64 63.99,173.51 61.24,173.51 61.24,163.89 63.99,163.89 
			63.99,165.26 		"/>
		<path class="st2" d="M65.37,166.64v1.37h1.37v-1.37H65.37z M66.74,168.01v1.38h1.38v-1.38H66.74z M68.12,169.39v1.37h1.37v-1.37
			H68.12z M69.49,170.76v1.38h1.38v-1.38H69.49z"/>
		<polygon class="st2" points="76.37,165.26 76.37,166.64 74.99,166.64 74.99,173.51 70.87,173.51 70.87,172.14 72.24,172.14 
			72.24,163.89 74.99,163.89 74.99,165.26 		"/>
		<path class="st2" d="M81.87,172.14v1.37h1.37v-1.37H81.87z M80.49,170.76v1.38h1.38v-1.38H80.49z M79.12,169.39v1.37h1.37v-1.37
			H79.12z M77.74,168.01v1.38h1.38v-1.38H77.74z M76.37,166.64v1.37h1.37v-1.37H76.37z"/>
	</g>
	<g>
		<polygon class="st2" points="14.54,256.5 14.54,257.88 4.91,257.88 4.91,256.5 3.54,256.5 3.54,246.88 6.29,246.88 6.29,256.5 		
			"/>
		<polygon class="st2" points="25.54,256.5 25.54,257.88 15.91,257.88 15.91,256.5 14.54,256.5 14.54,246.88 17.29,246.88 
			17.29,256.5 		"/>
	</g>
	<g>
		<polygon class="st2" points="42.58,247.02 42.58,248.39 34.33,248.39 34.33,258.02 31.58,258.02 31.58,248.39 32.96,248.39 
			32.96,247.02 		"/>
		<polygon class="st2" points="53.58,258.02 53.58,259.39 43.96,259.39 43.96,258.02 42.58,258.02 42.58,248.39 45.33,248.39 
			45.33,258.02 		"/>
	</g>
	<g>
		<rect x="58.51" y="252.4" class="st2" width="1.37" height="1.37"/>
		<rect x="59.88" y="251.02" class="st2" width="2.75" height="1.38"/>
		<rect x="62.63" y="249.65" class="st2" width="4.12" height="1.37"/>
		<rect x="66.75" y="251.02" class="st2" width="2.74" height="1.38"/>
		<rect x="69.49" y="252.4" class="st2" width="1.37" height="1.37"/>
		<rect x="70.87" y="253.77" class="st2" width="1.37" height="1.37"/>
		<rect x="72.24" y="255.14" class="st2" width="2.75" height="1.38"/>
		<rect x="74.99" y="256.52" class="st2" width="4.12" height="1.37"/>
		<rect x="79.11" y="255.14" class="st2" width="2.74" height="1.38"/>
		<rect x="81.85" y="253.77" class="st2" width="1.37" height="1.37"/>
		<rect x="58.51" y="252.4" class="st2" width="1.37" height="1.37"/>
	</g>
	<line class="st9" x1="42.52" y1="208.65" x2="42.52" y2="203.27"/>
	<line class="st9" x1="42.52" y1="212.33" x2="42.52" y2="217.13"/>
	<line class="st9" x1="14.17" y1="203.27" x2="14.17" y2="217.13"/>
	<line class="st9" x1="70.87" y1="203.27" x2="70.87" y2="217.13"/>
	<line class="st9" x1="33.05" y1="209.96" x2="14.17" y2="209.96"/>
	<line class="st9" x1="51.62" y1="210.2" x2="70.87" y2="210.2"/>
	<rect x="2.83" y="266.81" class="st10" width="79.37" height="44.65"/>
	<rect x="4.25" y="268.23" class="st11" width="76.54" height="41.81"/>
	<g>
		<path class="st1" d="M28.78,325.97c0,3.91-3.17,7.09-7.09,7.09c-3.91,0-7.08-3.18-7.08-7.09c0-2.91,1.76-5.42,4.27-6.51
			c-0.2,0.39-0.32,0.84-0.32,1.32c0,1.57,1.27,2.83,2.83,2.83c0.52,0,1.01-0.14,1.42-0.38c0.85-0.49,1.42-1.4,1.42-2.45
			c0-0.59-0.19-1.15-0.5-1.6C26.65,320.06,28.78,322.77,28.78,325.97z"/>
		<polygon class="st1" points="21.39,314.57 19.62,317.41 23.16,317.41 		"/>
		<polygon class="st1" points="10.27,325.97 13.11,327.74 13.11,324.2 		"/>
		<polygon class="st1" points="21.39,337.37 23.16,334.53 19.62,334.53 		"/>
		<polygon class="st1" points="33.03,325.97 30.2,324.2 30.2,327.74 		"/>
		<path class="st1" d="M22.81,324.52c0.44,0.39,0.71,0.96,0.71,1.59c0,0.63-0.27,1.19-0.71,1.58"/>
		<path class="st1" d="M19.97,327.68c-0.43-0.38-0.7-0.95-0.7-1.57c0-0.63,0.27-1.19,0.7-1.58"/>
		<path class="st12" d="M22.81,323.23v4.46c-0.38,0.33-0.87,0.54-1.42,0.54s-1.04-0.21-1.42-0.55v-4.45
			c0.42,0.24,0.9,0.38,1.42,0.38C21.91,323.61,22.4,323.47,22.81,323.23z"/>
		<radialGradient id="SVGID_3_" cx="21.395" cy="320.78" r="2.8325" gradientUnits="userSpaceOnUse">
			<stop  offset="0" style="stop-color:#FFFFFF;stop-opacity:0.7"/>
			<stop  offset="1" style="stop-color:#FFFFFF;stop-opacity:0.95"/>
		</radialGradient>
		<path class="st13" d="M24.23,320.78c0,1.05-0.57,1.96-1.42,2.45c-0.41,0.24-0.9,0.38-1.42,0.38c-0.52,0-1-0.14-1.42-0.38
			c-0.84-0.49-1.41-1.4-1.41-2.45c0-0.48,0.12-0.93,0.32-1.32c0.48-0.9,1.43-1.51,2.51-1.51c0.97,0,1.83,0.48,2.34,1.23
			C24.04,319.63,24.23,320.19,24.23,320.78z"/>
	</g>
	<g>
		<path class="st14" d="M60.94,326.69c0,1.32-1.9,2.39-4.25,2.39c-2.35,0-4.25-1.07-4.25-2.39c0-0.49,0.26-0.95,0.71-1.33v1.33
			c0,1.1,1.58,1.99,3.54,1.99c1.96,0,3.54-0.89,3.54-1.99v-1.33C60.68,325.74,60.94,326.2,60.94,326.69z"/>
		<path class="st14" d="M60.23,324.86c0,0.15-0.03,0.29-0.09,0.43c-0.06,0.17-0.17,0.34-0.31,0.49c-0.59,0.64-1.77,1.07-3.14,1.07
			s-2.55-0.43-3.14-1.07c-0.14-0.15-0.25-0.32-0.31-0.49c-0.06-0.14-0.09-0.28-0.09-0.43c0-1.1,1.58-2,3.54-2
			C58.65,322.86,60.23,323.76,60.23,324.86z"/>
		<path class="st14" d="M60.23,324.86v1.83c0,1.1-1.58,1.99-3.54,1.99c-1.96,0-3.54-0.89-3.54-1.99v-1.83
			c0,0.15,0.03,0.29,0.09,0.43c0.06,0.17,0.17,0.34,0.31,0.49c0.59,0.64,1.77,1.07,3.14,1.07s2.55-0.43,3.14-1.07
			c0.14-0.15,0.25-0.32,0.31-0.49C60.2,325.15,60.23,325.01,60.23,324.86z"/>
	</g>
	<g>
		<path class="st14" d="M75.12,321.78c0,1.32-1.9,2.39-4.25,2.39c-2.35,0-4.25-1.07-4.25-2.39c0-0.49,0.26-0.95,0.71-1.33v1.33
			c0,1.1,1.58,1.99,3.54,1.99c1.96,0,3.54-0.89,3.54-1.99v-1.33C74.86,320.83,75.12,321.29,75.12,321.78z"/>
		<path class="st14" d="M74.41,319.95c0,0.15-0.03,0.29-0.09,0.43c-0.06,0.17-0.17,0.34-0.31,0.49c-0.59,0.64-1.77,1.07-3.14,1.07
			s-2.55-0.43-3.14-1.07c-0.14-0.15-0.25-0.32-0.31-0.49c-0.06-0.14-0.09-0.28-0.09-0.43c0-1.1,1.58-2,3.54-2
			C72.83,317.95,74.41,318.85,74.41,319.95z"/>
		<path class="st14" d="M74.41,319.95v1.83c0,1.1-1.58,1.99-3.54,1.99c-1.96,0-3.54-0.89-3.54-1.99v-1.83
			c0,0.15,0.03,0.29,0.09,0.43c0.06,0.17,0.17,0.34,0.31,0.49c0.59,0.64,1.77,1.07,3.14,1.07s2.55-0.43,3.14-1.07
			c0.14-0.15,0.25-0.32,0.31-0.49C74.38,320.24,74.41,320.1,74.41,319.95z"/>
	</g>
	<g>
		<path class="st14" d="M39.68,343.79c0,1.32-1.9,2.39-4.25,2.39c-2.35,0-4.25-1.07-4.25-2.39c0-0.49,0.26-0.95,0.71-1.33v1.33
			c0,1.1,1.58,1.99,3.54,1.99c1.96,0,3.54-0.89,3.54-1.99v-1.33C39.42,342.84,39.68,343.3,39.68,343.79z"/>
		<path class="st14" d="M38.97,341.96c0,0.15-0.03,0.29-0.09,0.43c-0.06,0.17-0.17,0.34-0.31,0.49c-0.59,0.64-1.77,1.07-3.14,1.07
			s-2.55-0.43-3.14-1.07c-0.14-0.15-0.25-0.32-0.31-0.49c-0.06-0.14-0.09-0.28-0.09-0.43c0-1.1,1.58-2,3.54-2
			C37.39,339.96,38.97,340.86,38.97,341.96z"/>
		<path class="st14" d="M38.97,341.96v1.83c0,1.1-1.58,1.99-3.54,1.99c-1.96,0-3.54-0.89-3.54-1.99v-1.83
			c0,0.15,0.03,0.29,0.09,0.43c0.06,0.17,0.17,0.34,0.31,0.49c0.59,0.64,1.77,1.07,3.14,1.07s2.55-0.43,3.14-1.07
			c0.14-0.15,0.25-0.32,0.31-0.49C38.94,342.25,38.97,342.11,38.97,341.96z"/>
	</g>
	<g>
		<path class="st14" d="M53.61,343.79c0,1.32-1.9,2.39-4.25,2.39c-2.35,0-4.25-1.07-4.25-2.39c0-0.49,0.26-0.95,0.71-1.33v1.33
			c0,1.1,1.58,1.99,3.54,1.99c1.96,0,3.54-0.89,3.54-1.99v-1.33C53.35,342.84,53.61,343.3,53.61,343.79z"/>
		<path class="st14" d="M52.9,341.96c0,0.15-0.03,0.29-0.09,0.43c-0.06,0.17-0.17,0.34-0.31,0.49c-0.59,0.64-1.77,1.07-3.14,1.07
			s-2.55-0.43-3.14-1.07c-0.14-0.15-0.25-0.32-0.31-0.49c-0.06-0.14-0.09-0.28-0.09-0.43c0-1.1,1.58-2,3.54-2
			C51.32,339.96,52.9,340.86,52.9,341.96z"/>
		<path class="st14" d="M52.9,341.96v1.83c0,1.1-1.58,1.99-3.54,1.99c-1.96,0-3.54-0.89-3.54-1.99v-1.83c0,0.15,0.03,0.29,0.09,0.43
			c0.06,0.17,0.17,0.34,0.31,0.49c0.59,0.64,1.77,1.07,3.14,1.07s2.55-0.43,3.14-1.07c0.14-0.15,0.25-0.32,0.31-0.49
			C52.87,342.25,52.9,342.11,52.9,341.96z"/>
	</g>
</g>
<g id="Text">
	<g>
		<path class="st2" d="M31.02,8.18V5.99h0.63h0.63v0.31v0.31h0.31h0.31v0.31v0.31h0.31h0.31V6.93V6.62h0.31h0.31V6.31V5.99h0.63
			h0.63v2.19v2.19h-0.63h-0.63V9.43V8.49h-0.31h-0.31v0.31v0.31h-0.31H32.9V8.81V8.49h-0.31h-0.31v0.94v0.94h-0.63h-0.63V8.18z"/>
		<path class="st2" d="M36.02,8.18V5.99h1.56h1.56v0.31v0.31h0.31h0.31v0.31v0.31h0.31h0.31v0.94v0.94h-0.31h-0.31v0.31v0.31h-0.31
			h-0.31v0.31v0.31h-1.56h-1.56V8.18z M38.52,6.93V6.62H37.9h-0.63v1.56v1.56h0.63h0.63V9.43V9.12h0.31h0.31V8.18V7.24h-0.31h-0.31
			V6.93z"/>
		<path class="st2" d="M41.65,8.18V5.99h0.62h0.63v1.88v1.88h1.25h1.25v0.31v0.31h-1.88h-1.87V8.18z"/>
		<path class="st2" d="M46.65,8.18V7.87h1.88h1.88v0.31v0.31h-1.88h-1.88V8.18z"/>
		<path class="st2" d="M52.27,6.31V5.99h0.94h0.94v0.31v0.31h0.31h0.31v0.31v0.31h0.31h0.31v0.94v0.94h-0.31h-0.31v0.31v0.31h-0.31
			h-0.31v0.31v0.31h-0.94h-0.94v-0.31V9.74h-0.31h-0.31V9.43V9.12h-0.31h-0.31V8.18V7.24h0.31h0.31V6.93V6.62h0.31h0.31V6.31z
			 M53.52,6.93V6.62H52.9h-0.63v1.25v1.25h0.31h0.31v0.31v0.31h0.63h0.63V8.49V7.24h-0.31h-0.31V6.93z"/>
		<path class="st2" d="M57.9,6.31V5.99h0.63h0.63v1.88v1.88h0.63h0.63v0.31v0.31h-1.88h-1.88v-0.31V9.74h0.63h0.63V8.49V7.24h-0.31
			h-0.31V6.93V6.62h0.31h0.31V6.31z"/>
		<path class="st2" d="M66.02,7.24V5.99h0.63h0.63v0.94v0.94h0.31h0.31v0.31v0.31h0.31h0.31V8.18V7.87h0.31h0.31V6.93V5.99h0.63
			h0.63v1.25v1.25h-0.31h-0.31v0.31v0.31h-0.31h-0.31v0.31v0.31h-0.31h-0.31v0.31v0.31h-0.31H67.9v-0.31V9.74h-0.31h-0.31V9.43V9.12
			h-0.31h-0.31V8.81V8.49h-0.31h-0.31V7.24z"/>
		<path class="st2" d="M72.27,6.31V5.99h1.25h1.25v0.31v0.31h0.31h0.31v0.31v0.31h-0.63h-0.63V6.93V6.62h-0.63H72.9v0.31v0.31h-0.31
			h-0.31v0.94v0.94h0.31h0.31v0.31v0.31h0.63h0.63V9.43V9.12h0.63h0.63v0.31v0.31h-0.31h-0.31v0.31v0.31h-1.25h-1.25v-0.31V9.74
			h-0.31h-0.31V9.43V9.12h-0.31h-0.31V8.18V7.24h0.31h0.31V6.93V6.62h0.31h0.31V6.31z"/>
		<path class="st2" d="M76.65,6.31V5.99h1.56h1.56v0.31v0.31h0.31h0.31v1.56v1.56h-0.31h-0.31v0.31v0.31h-1.56h-1.56v-0.31V9.74
			h-0.31h-0.31V8.18V6.62h0.31h0.31V6.31z M79.15,8.18V6.62h-0.94h-0.94v1.56v1.56h0.94h0.94V8.18z"/>
	</g>
	<g>
		<path class="st2" d="M9.8,26.18v-0.31h1.56h1.56v0.31v0.31h0.31h0.31v1.56v1.56h-0.31h-0.31v0.31v0.31h-1.56H9.8v-0.31v-0.31H9.49
			H9.17v-1.56V26.5h0.31H9.8V26.18z M12.3,28.06V26.5h-0.94h-0.94v1.56v1.56h0.94h0.94V28.06z"/>
		<path class="st2" d="M14.17,28.06v-2.19h0.63h0.63v0.31v0.31h0.31h0.31v0.31v0.31h0.31h0.31v0.31v0.31h0.31h0.31v-0.94v-0.94h0.63
			h0.63v2.19v2.19h-0.63H17.3v-0.31v-0.31h-0.31h-0.31v-0.31V29h-0.31h-0.31v-0.31v-0.31h-0.31h-0.31v0.94v0.94H14.8h-0.63V28.06z"
			/>
	</g>
	<g>
		<path class="st2" d="M7.3,68.37v-0.31h1.56h1.56v0.31v0.31h0.31h0.31v1.56v1.56h-0.31h-0.31v0.31v0.31H8.86H7.3v-0.31V71.8H6.99
			H6.67v-1.56v-1.56h0.31H7.3V68.37z M9.8,70.24v-1.56H8.86H7.92v1.56v1.56h0.94H9.8V70.24z"/>
		<path class="st2" d="M11.67,70.24v-2.19h2.19h2.19v0.31v0.31h-1.56h-1.56v0.63v0.63h1.25h1.25v0.31v0.31h-1.25h-1.25v0.94v0.94
			H12.3h-0.63V70.24z"/>
		<path class="st2" d="M16.67,70.24v-2.19h2.19h2.19v0.31v0.31h-1.56h-1.56v0.63v0.63h1.25h1.25v0.31v0.31h-1.25h-1.25v0.94v0.94
			H17.3h-0.63V70.24z"/>
	</g>
	<g>
		<path class="st2" d="M56.19,31.26v-0.25h-0.25v-0.25h-0.25v-0.75h0.25v-0.25h0.25v-0.25h0.75v0.25h0.25v0.25h0.25v0.75h-0.25v0.25
			h-0.25v0.25H56.19z M56.44,31.01h0.5v-1h-0.25v-0.25h-0.5v1h0.25V31.01z"/>
	</g>
	<g>
		<path class="st2" d="M39.77,64.56v-0.25h1.5v0.25H39.77z"/>
		<path class="st2" d="M41.77,65.31v-0.25h0.5v-1h-0.25v-0.25h0.25v-0.25h0.5v1.5h0.5v0.25H41.77z"/>
		<path class="st2" d="M43.52,65.31v-0.5h0.25v-0.25h0.25v-0.25h0.5v-0.25h0.25v-0.25h-0.75v0.25h-0.5v-0.25h0.25v-0.25h1.25v0.25
			h0.25v0.5h-0.25v0.25h-0.25v0.25h-0.5v0.25h1v0.25H43.52z"/>
	</g>
	<g>
		<path class="st2" d="M68.62,65.06v-0.5h-0.5v-0.25h0.5v-0.5h0.5v0.5h0.5v0.25h-0.5v0.5H68.62z"/>
		<path class="st2" d="M70.12,65.31v-0.25h0.5v-1h-0.25v-0.25h0.25v-0.25h0.5v1.5h0.5v0.25H70.12z"/>
		<path class="st2" d="M71.87,65.31v-0.5h0.25v-0.25h0.25v-0.25h0.5v-0.25h0.25v-0.25h-0.75v0.25h-0.5v-0.25h0.25v-0.25h1.25v0.25
			h0.25v0.5h-0.25v0.25h-0.25v0.25h-0.5v0.25h1v0.25H71.87z"/>
	</g>
	<g>
		<path class="st2" d="M7.92,137.17v-0.63H7.3v-0.63H6.67v-1.88H7.3v-0.63h0.63v-0.63h2.5v0.63h0.63v0.63H9.8v-0.63H8.55v0.63H7.92
			v1.88h0.63v0.63H9.8v-0.63h1.25v0.63h-0.63v0.63H7.92z"/>
		<path class="st2" d="M13.55,137.17v-0.63h-0.63v-0.63H12.3v-0.63h-0.63v-2.5h1.25v1.88h0.63v0.63h0.63v-0.63h0.63v-1.88h1.25v2.5
			h-0.63v0.63H14.8v0.63h-0.63v0.63H13.55z"/>
		<path class="st2" d="M17.3,137.17v-0.63h1.25v-2.5h-0.63v-0.63h0.63v-0.63h1.25v3.75h1.25v0.63H17.3z"/>
	</g>
	<g>
		<path class="st2" d="M36.27,137.17v-0.63h-0.63v-0.63h-0.63v-1.88h0.63v-0.63h0.63v-0.63h2.5v0.63h0.63v0.63h-1.25v-0.63h-1.25
			v0.63h-0.63v1.88h0.63v0.63h1.25v-0.63h1.25v0.63h-0.63v0.63H36.27z"/>
		<path class="st2" d="M41.89,137.17v-0.63h-0.63v-0.63h-0.63v-0.63h-0.63v-2.5h1.25v1.88h0.63v0.63h0.63v-0.63h0.63v-1.88h1.25v2.5
			h-0.63v0.63h-0.63v0.63h-0.63v0.63H41.89z"/>
		<path class="st2" d="M45.02,137.17v-1.25h0.63v-0.63h0.63v-0.63h1.25v-0.63h0.63v-0.63h-1.88v0.63h-1.25v-0.63h0.63v-0.63h3.13
			v0.63h0.63v1.25h-0.63v0.63h-0.63v0.63h-1.25v0.63h2.5v0.63H45.02z"/>
	</g>
	<g>
		<path class="st2" d="M64.62,137.17v-0.63h-0.63v-0.63h-0.63v-1.88h0.63v-0.63h0.63v-0.63h2.5v0.63h0.63v0.63h-1.25v-0.63h-1.25
			v0.63h-0.63v1.88h0.63v0.63h1.25v-0.63h1.25v0.63h-0.63v0.63H64.62z"/>
		<path class="st2" d="M70.24,137.17v-0.63h-0.63v-0.63h-0.63v-0.63h-0.63v-2.5h1.25v1.88h0.63v0.63h0.63v-0.63h0.63v-1.88h1.25v2.5
			h-0.63v0.63h-0.63v0.63h-0.63v0.63H70.24z"/>
		<path class="st2" d="M73.99,137.17v-0.63h-0.63v-0.63h1.25v0.63h1.88v-1.25h-1.88v-0.63h0.63v-0.63h0.63v-0.63h-1.88v-0.63h3.75
			v0.63h-0.63v0.63h-0.63v0.63h0.63v0.63h0.63v1.25h-0.63v0.63H73.99z"/>
	</g>
	<g>
		<path class="st2" d="M33.89,211.27v-0.38h-0.38v-1.88h0.38v-0.38h1.88v0.38h0.38v1.88h-0.38v0.38H33.89z M34.27,210.9h1.13v-1.88
			h-1.13V210.9z"/>
		<path class="st2" d="M36.89,211.27v-0.38h-0.38v-1.5h0.75v1.5h1.13v-1.5h0.75v1.88H36.89z"/>
		<path class="st2" d="M40.64,211.27v-1.5h-0.75v-0.38h0.75v-0.75h0.75v0.75h0.75v0.38h-0.75v1.5H40.64z"/>
		<path class="st2" d="M42.52,211.65v-2.25h2.25v0.38h0.38v0.75h-0.38v0.38h-1.5v0.75H42.52z M43.27,210.52h1.13v-0.75h-1.13V210.52
			z"/>
		<path class="st2" d="M45.89,211.27v-0.38h-0.38v-1.5h0.75v1.5h1.13v-1.5h0.75v1.88H45.89z"/>
		<path class="st2" d="M49.64,211.27v-1.5h-0.75v-0.38h0.75v-0.75h0.75v0.75h0.75v0.38h-0.75v1.5H49.64z"/>
	</g>
	<g>
		<path class="st2" d="M28.02,161.41v-3h-1v-0.5h3v0.5h-1v3H28.02z"/>
		<path class="st2" d="M32.02,159.41h0.5v0.5h-0.5v1.5h-1v-2.5h1V159.41z M34.02,158.91v0.5h-1.5v-0.5H34.02z"/>
		<path class="st2" d="M35.02,161.41v-0.5h1v-1.5h-0.5v-0.5h1.5v2h1v0.5H35.02z M36.02,158.41v-0.5h1v0.5H36.02z"/>
		<path class="st2" d="M39.02,161.41v-0.5h-0.5v-0.5h0.5v-0.5h2v-0.5h-2v-0.5h2.5v0.5h0.5v2H39.02z M39.52,160.91h1.5v-0.5h-1.5
			V160.91z"/>
		<path class="st2" d="M42.52,161.41v-2.5h3v0.5h0.5v2h-1v-2h-1.5v2H42.52z"/>
		<path class="st2" d="M47.02,161.91v-0.5h2v-0.5h-2v-0.5h-0.5v-1h0.5v-0.5h3v2.5h-0.5v0.5H47.02z M47.52,160.41h1.5v-1h-1.5V160.41
			z"/>
		<path class="st2" d="M51.02,161.41v-0.5h1v-2.5h-0.5v-0.5h1.5v3h1v0.5H51.02z"/>
		<path class="st2" d="M55.02,161.41v-0.5h-0.5v-1.5h0.5v-0.5h2.5v0.5h0.5v1h-2.5v0.5h2v0.5H55.02z M55.52,159.91h1.5v-0.5h-1.5
			V159.91z"/>
	</g>
	<g>
		<path class="st2" d="M6.17,161.41v-3.5h3v0.5h0.5v1.5h-1v0.5h0.5v0.5h0.5v0.5h-1.5v-0.5h-0.5v-0.5h-0.5v1H6.17z M7.17,159.91h1
			v-0.5h0.5v-1h-1.5V159.91z"/>
		<path class="st2" d="M10.67,161.41v-0.5h-0.5v-0.5h0.5v-0.5h2v-0.5h-2v-0.5h2.5v0.5h0.5v2H10.67z M11.17,160.91h1.5v-0.5h-1.5
			V160.91z"/>
		<path class="st2" d="M14.17,161.41v-2.5h3v0.5h0.5v2h-1v-2h-0.5v2h-1v-2h-0.5v2H14.17z"/>
		<path class="st2" d="M18.17,161.91v-3h3v0.5h0.5v1h-0.5v0.5h-2v1H18.17z M19.17,160.41h1.5v-1h-1.5V160.41z"/>
	</g>
	<g>
		<path class="st2" d="M65.32,161.41v-0.5h-0.5v-0.5h1v0.5h1.5v-1h-2v-0.5h-0.5v-1h0.5v-0.5h2.5v0.5h0.5v0.5h-1v-0.5h-1.5v1h2v0.5
			h0.5v1h-0.5v0.5H65.32z"/>
		<path class="st2" d="M69.32,161.41v-0.5h-0.5v-0.5h0.5v-0.5h2v-0.5h-2v-0.5h2.5v0.5h0.5v2H69.32z M69.82,160.91h1.5v-0.5h-1.5
			V160.91z"/>
		<path class="st2" d="M73.82,160.91h0.5v0.5h-1v-0.5h-0.5v-2h1V160.91z M74.82,158.91v2h-0.5v-2H74.82z M76.32,158.91v2h-0.5v0.5
			h-1v-0.5h0.5v-2H76.32z"/>
	</g>
	<g>
		<path class="st2" d="M4.17,263.4v-3.5h3v0.5h0.5v1.5h-0.5v0.5h-2v1H4.17z M5.17,261.9h1.5v-1.5h-1.5V261.9z"/>
		<path class="st2" d="M8.67,263.4v-0.5h-0.5v-2h1v2h1.5v-2h1v2.5H8.67z"/>
		<path class="st2" d="M12.67,263.4v-0.5h1v-2.5h-0.5v-0.5h1.5v3h1v0.5H12.67z"/>
		<path class="st2" d="M16.17,263.4v-0.5h2.5v-0.5h-2v-0.5h-0.5v-0.5h0.5v-0.5h2.5v0.5h-2v0.5h2v0.5h0.5v0.5h-0.5v0.5H16.17z"/>
		<path class="st2" d="M20.67,263.4v-0.5h-0.5v-1.5h0.5v-0.5h2.5v0.5h0.5v1h-2.5v0.5h2v0.5H20.67z M21.17,261.9h1.5v-0.5h-1.5V261.9
			z"/>
	</g>
	<g>
		<path class="st2" d="M31.02,263.4v-0.5h-0.5v-0.5h1v0.5h1.5v-1h-2v-0.5h-0.5v-1h0.5v-0.5h2.5v0.5h0.5v0.5h-1v-0.5h-1.5v1h2v0.5
			h0.5v1h-0.5v0.5H31.02z"/>
		<path class="st2" d="M37.02,263.9v-1h-2v-0.5h-0.5v-1h0.5v-0.5h3v3H37.02z M35.52,262.4h1.5v-1h-1.5V262.4z"/>
		<path class="st2" d="M39.02,263.4v-0.5h-0.5v-2h1v2h1.5v-2h1v2.5H39.02z"/>
		<path class="st2" d="M43.02,263.4v-0.5h-0.5v-0.5h0.5v-0.5h2v-0.5h-2v-0.5h2.5v0.5h0.5v2H43.02z M43.52,262.9h1.5v-0.5h-1.5V262.9
			z"/>
		<path class="st2" d="M48.02,261.4h0.5v0.5h-0.5v1.5h-1v-2.5h1V261.4z M50.02,260.9v0.5h-1.5v-0.5H50.02z"/>
		<path class="st2" d="M51.02,263.4v-0.5h-0.5v-1.5h0.5v-0.5h2.5v0.5h0.5v1h-2.5v0.5h2v0.5H51.02z M51.52,261.9h1.5v-0.5h-1.5V261.9
			z"/>
	</g>
	<g>
		<path class="st2" d="M63.37,263.4v-0.5h-0.5v-0.5h1v0.5h1.5v-1h-2v-0.5h-0.5v-1h0.5v-0.5h2.5v0.5h0.5v0.5h-1v-0.5h-1.5v1h2v0.5
			h0.5v1h-0.5v0.5H63.37z"/>
		<path class="st2" d="M67.37,263.4v-0.5h1v-1.5h-0.5v-0.5h1.5v2h1v0.5H67.37z M68.37,260.4v-0.5h1v0.5H68.37z"/>
		<path class="st2" d="M70.87,263.4v-2.5h3v0.5h0.5v2h-1v-2h-1.5v2H70.87z"/>
		<path class="st2" d="M75.37,263.4v-0.5h-0.5v-1.5h0.5v-0.5h2.5v0.5h0.5v1h-2.5v0.5h2v0.5H75.37z M75.87,261.9h1.5v-0.5h-1.5V261.9
			z"/>
	</g>
	<g>
		<path class="st15" d="M27.51,290.59v-1.5h-1.5v-1.5h-1.5v-1.5h-1.5v-6h3v4.5h1.5v1.5h1.5v-1.5h1.5v-4.5h3v6h-1.5v1.5h-1.5v1.5
			h-1.5v1.5H27.51z"/>
		<path class="st15" d="M38.01,290.59v-1.5h-1.5v-1.5h-1.5v-4.5h1.5v-1.5h1.5v-1.5h6v1.5h1.5v1.5h-3v-1.5h-3v1.5h-1.5v4.5h1.5v1.5h3
			v-1.5h3v1.5h-1.5v1.5H38.01z"/>
		<path class="st15" d="M48.51,290.59v-1.5h-1.5v-7.5h1.5v-1.5h7.5v1.5h1.5v7.5h-1.5v1.5H48.51z M50.01,289.09h4.5v-7.5h-4.5V289.09
			z"/>
	</g>
	<g>
		<path class="st16" d="M29.02,289.11v-1.5h-1.5v-1.5h-1.5v-1.5h-1.5v-6h3v4.5h1.5v1.5h1.5v-1.5h1.5v-4.5h3v6h-1.5v1.5h-1.5v1.5
			h-1.5v1.5H29.02z"/>
		<path class="st16" d="M39.52,289.11v-1.5h-1.5v-1.5h-1.5v-4.5h1.5v-1.5h1.5v-1.5h6v1.5h1.5v1.5h-3v-1.5h-3v1.5h-1.5v4.5h1.5v1.5h3
			v-1.5h3v1.5h-1.5v1.5H39.52z"/>
		<path class="st16" d="M50.02,289.11v-1.5h-1.5v-7.5h1.5v-1.5h7.5v1.5h1.5v7.5h-1.5v1.5H50.02z M51.52,287.61h4.5v-7.5h-4.5V287.61
			z"/>
	</g>
	<g>
		<path class="st2" d="M30.53,287.63v-1.5h-1.5v-1.5h-1.5v-1.5h-1.5v-6h3v4.5h1.5v1.5h1.5v-1.5h1.5v-4.5h3v6h-1.5v1.5h-1.5v1.5h-1.5
			v1.5H30.53z"/>
		<path class="st2" d="M41.03,287.63v-1.5h-1.5v-1.5h-1.5v-4.5h1.5v-1.5h1.5v-1.5h6v1.5h1.5v1.5h-3v-1.5h-3v1.5h-1.5v4.5h1.5v1.5h3
			v-1.5h3v1.5h-1.5v1.5H41.03z"/>
		<path class="st2" d="M51.53,287.63v-1.5h-1.5v-7.5h1.5v-1.5h7.5v1.5h1.5v7.5h-1.5v1.5H51.53z M53.03,286.13h4.5v-7.5h-4.5V286.13z
			"/>
	</g>
	<g>
		<path class="st2" d="M52.73,331.41v-1.75h1.75v0.25h-1.25v0.5h1v0.25h-1v0.75H52.73z"/>
		<path class="st2" d="M54.98,331.41v-0.25h0.5v-0.75h-0.25v-0.25h0.75v1h0.5v0.25H54.98z M55.48,329.91v-0.25h0.5v0.25H55.48z"/>
		<path class="st2" d="M57.48,330.41h0.25v0.25h-0.25v0.75h-0.5v-1.25h0.5V330.41z M58.48,330.16v0.25h-0.75v-0.25H58.48z"/>
		<path class="st2" d="M58.98,331.41v-0.25h-0.25v-0.75h0.25v-0.25h1.25v0.25h0.25v0.5h-1.25v0.25h1v0.25H58.98z M59.23,330.66h0.75
			v-0.25h-0.75V330.66z"/>
	</g>
	<g>
		<path class="st2" d="M67.12,326.52v-0.25h-0.25v-0.25h0.5v0.25h0.75v-1.5h0.5v1.5h-0.25v0.25H67.12z"/>
		<path class="st2" d="M69.12,326.52v-0.25h-0.25v-1h0.5v1h0.75v-1h0.5v1.25H69.12z"/>
		<path class="st2" d="M70.87,326.52v-1.25h1.5v0.25h0.25v1h-0.5v-1h-0.25v1h-0.5v-1h-0.25v1H70.87z"/>
		<path class="st2" d="M72.87,326.77v-1.5h1.5v0.25h0.25v0.5h-0.25v0.25h-1v0.5H72.87z M73.37,326.02h0.75v-0.5h-0.75V326.02z"/>
	</g>
	<g>
		<path class="st2" d="M24.52,297.47v-1.75h1.5v0.25h0.25v0.75h-0.25v0.25h-1v0.5H24.52z M25.02,296.72h0.75v-0.75h-0.75V296.72z"/>
		<path class="st2" d="M26.77,297.47v-1.75h0.5v1.5h1v0.25H26.77z"/>
		<path class="st2" d="M28.52,297.47v-1.75h1.75v0.25h-1.25v0.5h1v0.25h-1v0.5h1.25v0.25H28.52z"/>
		<path class="st2" d="M30.52,297.47v-1.25h0.25v-0.25h0.25v-0.25h0.75v0.25h0.25v0.25h0.25v1.25h-0.5v-0.5h-0.75v0.5H30.52z
			 M31.02,296.72h0.75v-0.5h-0.25v-0.25h-0.25v0.25h-0.25V296.72z"/>
		<path class="st2" d="M32.77,297.47v-0.25h-0.25v-0.25h0.5v0.25h0.75v-0.5h-1v-0.25h-0.25v-0.5h0.25v-0.25h1.25v0.25h0.25v0.25
			h-0.5v-0.25h-0.75v0.5h1v0.25h0.25v0.5h-0.25v0.25H32.77z"/>
		<path class="st2" d="M34.52,297.47v-1.75h1.75v0.25h-1.25v0.5h1v0.25h-1v0.5h1.25v0.25H34.52z"/>
		<path class="st2" d="M38.77,297.47v-0.25h0.5v-1.25h-0.5v-0.25h1.5v0.25h-0.5v1.25h0.5v0.25H38.77z"/>
		<path class="st2" d="M40.52,297.47v-1.75h0.5v0.25h0.25v0.25h0.25v0.25h0.25v-0.75h0.5v1.75h-0.5v-0.5h-0.25v-0.25h-0.25v-0.25
			h-0.25v1H40.52z"/>
		<path class="st2" d="M42.77,297.47v-0.25h-0.25v-0.25h0.5v0.25h0.75v-0.5h-1v-0.25h-0.25v-0.5h0.25v-0.25h1.25v0.25h0.25v0.25
			h-0.5v-0.25h-0.75v0.5h1v0.25h0.25v0.5h-0.25v0.25H42.77z"/>
		<path class="st2" d="M44.52,297.47v-1.75h1.75v0.25h-1.25v0.5h1v0.25h-1v0.5h1.25v0.25H44.52z"/>
		<path class="st2" d="M46.52,297.47v-1.75h1.5v0.25h0.25v0.75h-0.5v0.25h0.25v0.25h0.25v0.25h-0.75v-0.25h-0.25v-0.25h-0.25v0.5
			H46.52z M47.02,296.72h0.5v-0.25h0.25v-0.5h-0.75V296.72z"/>
		<path class="st2" d="M49.27,297.47v-1.5h-0.5v-0.25h1.5v0.25h-0.5v1.5H49.27z"/>
		<path class="st2" d="M53.02,297.47v-0.25h-0.25v-0.25h-0.25v-0.75h0.25v-0.25h0.25v-0.25h1v0.25h0.25v0.25h-0.5v-0.25h-0.5v0.25
			h-0.25v0.75h0.25v0.25h0.5v-0.25h0.5v0.25h-0.25v0.25H53.02z"/>
		<path class="st2" d="M54.77,297.47v-0.25h-0.25v-1.25h0.25v-0.25h1.25v0.25h0.25v1.25h-0.25v0.25H54.77z M55.02,297.22h0.75v-1.25
			h-0.75V297.22z"/>
		<path class="st2" d="M56.77,297.47v-0.25h0.5v-1.25h-0.5v-0.25h1.5v0.25h-0.5v1.25h0.5v0.25H56.77z"/>
		<path class="st2" d="M58.52,297.47v-1.75h0.5v0.25h0.25v0.25h0.25v0.25h0.25v-0.75h0.5v1.75h-0.5v-0.5h-0.25v-0.25h-0.25v-0.25
			h-0.25v1H58.52z"/>
	</g>
	<g>
		<path class="st2" d="M32.02,306.31v-0.19h-0.19v-0.19h-0.19v-0.56h0.19v-0.19h0.19V305h0.38v0.19h-0.19v0.19h-0.19v0.56h0.19v0.19
			h0.19v0.19H32.02z"/>
		<path class="st2" d="M32.96,306.31v-0.19h-0.19v-0.56h0.19v-0.19h1.13v0.19h-0.94v0.56h0.94v0.19H32.96z"/>
		<path class="st2" d="M34.46,306.31v-0.19h0.19v-0.19h0.19v-0.56h-0.19v-0.19h-0.19V305h0.38v0.19h0.19v0.19h0.19v0.56h-0.19v0.19
			h-0.19v0.19H34.46z"/>
		<path class="st2" d="M35.77,306.31v-0.38h0.19v-0.19h0.19v-0.19h0.38v-0.19h0.19v-0.19h-0.56v0.19h-0.38v-0.19h0.19V305h0.94v0.19
			h0.19v0.38h-0.19v0.19h-0.19v0.19h-0.38v0.19h0.75v0.19H35.77z"/>
		<path class="st2" d="M37.64,306.31v-0.19h-0.19v-0.19h-0.19v-0.56h0.19v-0.19h0.19V305h0.56v0.19h0.19v0.19h0.19v0.56h-0.19v0.19
			h-0.19v0.19H37.64z M37.83,306.12h0.38v-0.75h-0.19v-0.19h-0.38v0.75h0.19V306.12z"/>
		<path class="st2" d="M38.77,306.31v-0.38h0.19v-0.19h0.19v-0.19h0.38v-0.19h0.19v-0.19h-0.56v0.19h-0.38v-0.19h0.19V305h0.94v0.19
			h0.19v0.38h-0.19v0.19h-0.19v0.19h-0.38v0.19h0.75v0.19H38.77z"/>
		<path class="st2" d="M40.46,306.31v-0.19h0.38v-0.75h-0.19v-0.19h0.19V305h0.38v1.13h0.38v0.19H40.46z"/>
		<path class="st2" d="M43.27,306.31V305h0.38v0.19h0.19v0.19h0.19v-0.19h0.19V305h0.38v1.31h-0.38v-0.75h-0.19v0.38h-0.19v-0.38
			h-0.19v0.75H43.27z"/>
		<path class="st2" d="M44.77,306.31V305h0.94v0.19h0.19v0.19h0.19v0.56h-0.19v0.19h-0.19v0.19H44.77z M45.14,306.12h0.38v-0.19
			h0.19v-0.56h-0.19v-0.19h-0.38V306.12z"/>
		<path class="st2" d="M46.46,306.31V305h0.38v1.13h0.75v0.19H46.46z"/>
		<path class="st2" d="M48.14,306.12h0.19v0.19h-0.38v-0.19h-0.19v-0.75h0.38V306.12z M48.52,305.37v0.75h-0.19v-0.75H48.52z
			 M49.08,305.37v0.75h-0.19v0.19h-0.38v-0.19h0.19v-0.75H49.08z"/>
		<path class="st2" d="M49.46,306.31v-0.19h-0.19v-0.19h0.19v-0.19h0.75v-0.19h-0.75v-0.19h0.94v0.19h0.19v0.75H49.46z
			 M49.64,306.12h0.56v-0.19h-0.56V306.12z"/>
		<path class="st2" d="M51.33,305.56h0.19v0.19h-0.19v0.56h-0.38v-0.94h0.38V305.56z M52.08,305.37v0.19h-0.56v-0.19H52.08z"/>
		<path class="st2" d="M52.46,306.31v-0.19h-0.19v-0.56h0.19v-0.19h0.94v0.19h0.19v0.38h-0.94v0.19h0.75v0.19H52.46z M52.64,305.75
			h0.56v-0.19h-0.56V305.75z"/>
	</g>
	<g>
		<path class="st2" d="M33.68,338.93v-0.25h0.5v-1h-0.25v-0.25h0.25v-0.25h0.5v1.5h0.5v0.25H33.68z"/>
		<path class="st2" d="M35.43,338.93v-1.75h1.5v0.25h0.25v0.75h-0.25v0.25h-1v0.5H35.43z M35.93,338.18h0.75v-0.75h-0.75V338.18z"/>
	</g>
	<g>
		<path class="st2" d="M47.36,338.93v-0.5h0.25v-0.25h0.25v-0.25h0.5v-0.25h0.25v-0.25h-0.75v0.25h-0.5v-0.25h0.25v-0.25h1.25v0.25
			h0.25v0.5h-0.25v0.25h-0.25v0.25h-0.5v0.25h1v0.25H47.36z"/>
		<path class="st2" d="M49.36,338.93v-1.75h1.5v0.25h0.25v0.75h-0.25v0.25h-1v0.5H49.36z M49.86,338.18h0.75v-0.75h-0.75V338.18z"/>
	</g>
	<g>
		<path class="st2" d="M24.02,30.94v-2.19h0.63v0.31h0.31v0.31h0.31v-0.31h0.31v-0.31h0.63v2.19h-0.63v-1.25h-0.31v0.63h-0.31v-0.63
			h-0.31v1.25H24.02z"/>
		<path class="st2" d="M26.84,30.94v-0.31h-0.31v-0.31h0.31v-0.31h1.25v-0.31h-1.25v-0.31h1.56v0.31h0.31v1.25H26.84z M27.15,30.63
			h0.94v-0.31h-0.94V30.63z"/>
		<path class="st2" d="M29.02,30.94v-1.56h1.88v0.31h0.31v1.25h-0.63v-1.25h-0.94v1.25H29.02z"/>
		<path class="st2" d="M31.84,30.94v-0.31h-0.31v-1.25h0.63v1.25h0.94v-1.25h0.63v1.56H31.84z"/>
		<path class="st2" d="M34.34,30.94v-0.31h-0.31v-0.31h0.31v-0.31h1.25v-0.31h-1.25v-0.31h1.56v0.31h0.31v1.25H34.34z M34.65,30.63
			h0.94v-0.31h-0.94V30.63z"/>
		<path class="st2" d="M36.84,30.94v-0.31h0.63v-1.56h-0.31v-0.31h0.94v1.88h0.63v0.31H36.84z"/>
		<path class="st2" d="M42.15,30.94v-0.31h-0.31v-0.31h-0.31v-0.94h0.31v-0.31h0.31v-0.31h1.25v0.31h0.31v0.31h-0.63v-0.31h-0.63
			v0.31h-0.31v0.94h0.31v0.31h0.63v-0.31h0.63v0.31H43.4v0.31H42.15z"/>
		<path class="st2" d="M44.96,30.94v-0.31h-0.31v-0.31h-0.31v-0.31h-0.31v-1.25h0.63v0.94h0.31v0.31h0.31v-0.31h0.31v-0.94h0.63
			v1.25H45.9v0.31h-0.31v0.31h-0.31v0.31H44.96z"/>
	</g>
</g>
</svg>
